# xmcd
#
# Track frame offsets:
#	200
#	15150
#	42540
#	71160
#	94392
#	116182
#	136450
#	164052
#
# Disc length: 2557 seconds
#
# Revision: 0
# Processed by: cddbd v1.4PL0 Copyright (c) Steve Scherf et al.
# Submitted via: EasyCDDAExtractor 4.6.9.1
#
DISCID=7509fb08
DTITLE=Blues Boy Willie - Be Who 2
DYEAR=1900
DGENRE=Blues
TTITLE0=Party All Night
TTITLE1=I Still Care
TTITLE2=Break Away
TTITLE3=The Rest Of My Life
TTITLE4=Where Is Leroy
TTITLE5=Love Darling Love
TTITLE6=Let's Get Closer
TTITLE7=Be Who, Too
EXTD=
EXTT0=
EXTT1=
EXTT2=
EXTT3=
EXTT4=
EXTT5=
EXTT6=
EXTT7=
PLAYORDER=
